<?xml version="1.0" ?><!DOCTYPE svg  PUBLIC '-//W3C//DTD SVG 1.1//EN'  'http://www.w3.org/Graphics/SVG/1.1/DTD/svg11.dtd'><svg enable-background="new 0 0 32 32" height="32px" id="Layer_1" version="1.1" viewBox="0 0 32 32" width="32px" xml:space="preserve" xmlns="http://www.w3.org/2000/svg" xmlns:xlink="http://www.w3.org/1999/xlink"><g><path d="M8,25c-1.7,0-3,1.3-3,3s1.3,3,3,3s3-1.3,3-3S9.7,25,8,25z M8,29.2c-0.7,0-1.3-0.6-1.3-1.3   c0-0.7,0.6-1.3,1.3-1.3s1.2,0.6,1.2,1.3C9.2,28.7,8.7,29.2,8,29.2z" fill="#27314D"/><path d="M27,25c-1.7,0-3,1.3-3,3s1.3,3,3,3s3-1.3,3-3S28.7,25,27,25z M27,29.2c-0.7,0-1.3-0.6-1.3-1.3   s0.6-1.3,1.3-1.3c0.7,0,1.2,0.6,1.2,1.3S27.7,29.2,27,29.2z" fill="#27314D"/><rect fill="#54ABD1" height="13" width="12" x="6" y="7"/><polygon fill="#3E8DB8" points="32,7 18,7 18,20 29,20  "/><path d="M9.5,22C8,22,7,21.1,7,19.7v-10C7,7,6.4,5.2,5.1,3.9L4.2,3C3.7,2.2,2.6,1.7,2.3,2.5L2,4.7l1.5,1.5   C3.9,6.9,4,8,4,8.6V20c0,2,2,5,5.2,5H18v-3H9.5z" fill="#465476"/><path d="M27.6,22H18v3h9.6c0.8,0,1.4-0.7,1.4-1.5S28.5,22,27.6,22z" fill="#27314D"/><circle cx="2" cy="3" fill="#54ABD1" r="2"/></g><g><path d="M24,16v16c4.4,0,8-3.6,8-8S28.4,16,24,16z" fill="#3EA660"/><path d="M16,24c0,4.4,3.6,8,8,8V16C19.6,16,16,19.6,16,24z" fill="#5FBC6F"/><polygon fill="#D0D4D7" points="28.4,20.8 24,25.2 24,27.7 29.7,22  "/><polygon fill="#EEEEEE" points="22.5,26.7 19.6,23.8 18.3,25.1 22.5,29.2 24,27.7 24,25.2  "/></g></svg>